<?xml version="1.0" encoding="utf-8"?>
<!-- Generator: Adobe Illustrator 21.0.2, SVG Export Plug-In . SVG Version: 6.00 Build 0)  -->
<svg version="1.1" id="Layer_1" xmlns="http://www.w3.org/2000/svg" xmlns:xlink="http://www.w3.org/1999/xlink" x="0px" y="0px"
	 viewBox="0 0 100 100" style="enable-background:new 0 0 100 100;" xml:space="preserve">
<style type="text/css">
	.st0{fill:#FFFFFF;}
</style>
<g>
	<path class="st0" d="M85.5,59.1c-0.6,0.2-1.2,0.5-1.8,0.7v21.5c0,1.3-1,2.3-2.3,2.3H8.3c-1.3,0-2.3-1-2.3-2.3V37.7h43.2
		c-0.1-0.6-0.1-1.2-0.1-1.8c0-0.4-0.1-0.8-0.1-1.3c0-0.2,0-0.4,0-0.5h-43v-2.7v-2.1c0-0.7,0.4-1.4,0.9-1.8c0.4-0.3,0.9-0.5,1.4-0.5
		h41.8c0.2-0.5,0.3-1,0.5-1.5c0-0.1,0.1-0.2,0.1-0.3c0.2-0.6,0.5-1.2,0.8-1.8H8.3c-3.3,0-5.9,2.6-5.9,5.9v2.1v6.3v43.5
		c0,3.3,2.6,5.9,5.9,5.9h73.1c3.3,0,5.9-2.6,5.9-5.9v-23C86.7,58.5,86.1,58.8,85.5,59.1z"/>
	<path class="st0" d="M9.2,33.2c-1.4,0-2.6-1.1-2.6-2.6s1.1-2.6,2.6-2.6s2.6,1.1,2.6,2.6S10.6,33.2,9.2,33.2z M9.2,30.1
		c-0.3,0-0.5,0.2-0.5,0.5c0,0.5,1,0.5,1,0C9.7,30.3,9.5,30.1,9.2,30.1z"/>
	<path class="st0" d="M15,33.2c-1.4,0-2.6-1.1-2.6-2.6s1.1-2.6,2.6-2.6s2.6,1.1,2.6,2.6S16.4,33.2,15,33.2z M15,30.1
		c-0.3,0-0.5,0.2-0.5,0.5c0,0.5,1,0.5,1,0C15.5,30.3,15.3,30.1,15,30.1z"/>
	<path class="st0" d="M20.8,33.2c-1.4,0-2.6-1.1-2.6-2.6c0-1.4,1.1-2.6,2.6-2.6c1.4,0,2.6,1.1,2.6,2.6C23.4,32,22.2,33.2,20.8,33.2z
		 M20.8,30.1c-0.3,0-0.5,0.2-0.5,0.5c0,0.6,1,0.5,1,0C21.3,30.3,21.1,30.1,20.8,30.1z"/>
	<g>
		<path class="st0" d="M44.8,47.7c-5.2,0-9.5,4.3-9.5,9.5c0,9.5,9.5,15.8,9.5,15.8s9.5-6.3,9.5-15.8C54.3,51.9,50.1,47.7,44.8,47.7z
			 M44.8,60.3c-2.6,0-4.7-2.1-4.7-4.7s2.1-4.7,4.7-4.7s4.7,2.1,4.7,4.7S47.4,60.3,44.8,60.3z"/>
	</g>
	<polygon class="st0" points="67.9,42.1 70.4,41.7 68.4,39.7 	"/>
	<path class="st0" d="M75.4,13.8c-11.5,0-20.9,9.4-20.9,20.9c0,11.5,9.4,20.9,20.9,20.9c11.5,0,20.9-9.4,20.9-20.9
		C96.3,23.1,86.9,13.8,75.4,13.8z M71.9,42.5l-5.3,1l1-5.3L78.8,27l4.3,4.3L71.9,42.5z M85.2,29.1L84,30.4l-4.3-4.3l1.2-1.3
		c0.7-0.7,1.9-0.6,2.7,0.2l1.4,1.4C85.8,27.2,85.9,28.5,85.2,29.1z"/>
	<rect x="69.5" y="33.8" transform="matrix(0.7071 -0.7071 0.7071 0.7071 -2.3625 63.4984)" class="st0" width="12" height="1.6"/>
</g>
</svg>
