<?xml version="1.0" encoding="utf-8"?>
<!-- Generator: Adobe Illustrator 21.0.2, SVG Export Plug-In . SVG Version: 6.00 Build 0)  -->
<svg version="1.1" id="Layer_1" xmlns="http://www.w3.org/2000/svg" xmlns:xlink="http://www.w3.org/1999/xlink" x="0px" y="0px"
	 viewBox="0 0 100 100" style="enable-background:new 0 0 100 100;" xml:space="preserve">
<style type="text/css">
	.st0{fill:#FFFFFF;}
</style>
<g>
	<path class="st0" d="M66.7,59.8v15.7c0,0.4-0.4,1-0.8,1.2L50,83.3V47c-1.6-2.8-2.6-6-3.1-9.4v45.7l-16.4-6.3
		c-0.3-0.1-0.6-0.2-1-0.2V26.9L45.9,33c0.3,0.1,0.5,0.2,0.8,0.2c0-1.2,0.2-2.4,0.4-3.6l-16.5-6.2c-1.5-0.5-3.6-0.5-5.1,0L8.7,30
		c-1.7,0.7-3,2.6-3,4.5v49.3c0,1.1,0.5,2.1,1.3,2.7c0.8,0.6,1.9,0.7,3,0.3l16.8-6.4c0.6-0.2,1.9-0.2,2.5,0l16.6,6.4
		c0.7,0.3,1.6,0.4,2.5,0.4c0.9,0,1.9-0.2,2.7-0.5L67.3,80c1.7-0.7,3-2.6,3-4.5V60.5C69.1,60.4,67.9,60.1,66.7,59.8z M26.6,76.8
		c-0.4,0.1-0.8,0.2-1.1,0.3L9.2,83.2V34.5c0-0.4,0.4-1,0.8-1.1l16.6-6.5V76.8z"/>
	<path class="st0" d="M73,13.5c-11.5,0-20.8,9.3-20.8,20.8S61.6,55.1,73,55.1s20.8-9.3,20.8-20.8S84.5,13.5,73,13.5z M80.8,35.3
		c-0.3,0.3-0.7,0.4-1.1,0.4c-0.4,0-0.8-0.2-1.1-0.5l-3.5-3.6c0,3.6,0,10.9,0,11.4c0,0.3-0.8,0.8-1.5,0.8c-0.8,0-1.5-0.5-1.5-0.8
		c0-0.5,0-7.7,0-11.3l-3.5,3.5c-0.6,0.6-1.6,0.6-2.2,0c-0.6-0.6-0.6-1.6,0-2.2l7.3-7.3l7.2,7.3C81.4,33.7,81.4,34.7,80.8,35.3z"/>
</g>
</svg>
