<?xml version="1.0" encoding="UTF-8"?>
<svg width="100px" height="100px" viewBox="0 0 100 100" version="1.1" xmlns="http://www.w3.org/2000/svg" xmlns:xlink="http://www.w3.org/1999/xlink">
    <!-- Generator: Sketch 43.2 (39069) - http://www.bohemiancoding.com/sketch -->
    <title>Artboard</title>
    <desc>Created with Sketch.</desc>
    <defs>
        <polygon id="path-1" points="41.8129643 42.7832777 41.8129643 0.45495561 0.257392132 0.45495561 0.257392132 42.7832777 41.8129643 42.7832777"></polygon>
        <polygon id="path-3" points="98.9205688 0.417293453 98.9205688 65.0714715 0 65.0714715 0 0.417293453 98.9205688 0.417293453"></polygon>
    </defs>
    <g id="Page-1" stroke="none" stroke-width="1" fill="none" fill-rule="evenodd">
        <g id="Artboard">
            <g id="Page-1" transform="translate(0.000000, 12.000000)">
                <g id="Group-3" transform="translate(57.107604, 0.216614)">
                    <mask id="mask-2" fill="white">
                        <use xlink:href="#path-1"></use>
                    </mask>
                    <g id="Clip-2"></g>
                    <path d="M30.1695395,23.1765606 L22.5640304,23.1765606 L22.5640304,30.9211931 L19.5046944,30.9211931 L19.5046944,23.1765606 L11.9032643,23.1765606 L11.9032643,20.0604263 L19.5046944,20.0604263 L19.5046944,12.3137164 L22.5640304,12.3137164 L22.5640304,20.0604263 L30.1695395,20.0604263 L30.1695395,23.1765606 Z M21.0343624,0.453709156 C9.57816901,0.453709156 0.257392132,9.94960913 0.257392132,21.6184934 C0.257392132,33.2873777 9.57816901,42.7832777 21.0343624,42.7832777 C32.4925953,42.7832777 41.8133722,33.2873777 41.8133722,21.6184934 C41.8133722,9.94960913 32.4925953,0.453709156 21.0343624,0.453709156 L21.0343624,0.453709156 Z" id="Fill-1" fill="#FEFEFE" mask="url(#mask-2)"></path>
                </g>
                <g id="Group-6" transform="translate(0.000000, 9.932367)">
                    <mask id="mask-4" fill="white">
                        <use xlink:href="#path-3"></use>
                    </mask>
                    <g id="Clip-5"></g>
                    <path d="M-16536.0056,59.7526457 L16878.0617,59.7526457 L-16536.0056,59.7526457 Z M78.1425787,61.8529202 L26.4316429,61.8529202 L26.4316429,50.5351204 L82.388937,50.5351204 L82.388937,58.585134 C82.388937,60.1785174 80.7756472,61.8529202 78.1425787,61.8529202 L78.1425787,61.8529202 Z M23.3723069,16.5297853 L3.57024506,16.5297853 L3.57024506,6.45428434 C3.57024506,4.96061729 4.42278001,3.63522149 6.65201614,3.63522149 L23.3723069,3.63522149 L23.3723069,16.5297853 Z M3.5682055,32.1707021 L23.3723069,32.1707021 L23.3723069,19.647997 L3.5682055,19.647997 L3.5682055,32.1707021 Z M3.5682055,47.4189861 L23.3723069,47.4189861 L23.3723069,35.2868365 L3.5682055,35.2868365 L3.5682055,47.4189861 Z M23.3723069,61.8529202 L6.84373453,61.8529202 C4.71851582,61.8529202 3.57024506,60.4008016 3.57024506,58.3877788 L3.57024506,50.5351204 L23.3723069,50.5351204 L23.3723069,61.8529202 Z M84.1755892,37.9168538 C83.5861572,38.0581186 82.9906064,38.1723768 82.388937,38.2741705 L82.388937,47.4189861 L26.4316429,47.4189861 L26.4316429,35.2868365 L65.4137016,35.2868365 C64.5795227,34.813184 63.7800162,34.287596 63.0049844,33.7287693 C62.3278514,33.2384975 61.6731535,32.7191418 61.0470094,32.1707021 L26.4316429,32.1707021 L26.4316429,19.6459196 L53.0091141,19.6459196 C52.8561473,19.136951 52.7358134,18.611363 52.61344,18.0878524 C52.4931061,17.574729 52.3890887,17.0553733 52.2973086,16.5297853 L26.4316429,16.5297853 L26.4316429,3.63522149 L53.1743182,3.63522149 C53.3497202,3.0909367 53.5475572,2.55496159 53.7535525,2.02521876 C53.9697456,1.47677912 54.2083738,0.944958864 54.4571998,0.417293453 L5.95244799,0.417293453 C2.44644899,0.417293453 0.00101977867,1.90888308 0.00101977867,6.13020637 L0.00101977867,59.7526457 C0.00101977867,62.1894627 2.22209768,65.0729257 5.81375809,65.0729257 L80.6084035,65.0729257 C83.490298,65.0729257 85.9581623,62.5010761 85.9581623,59.7941941 L85.9581623,37.4473562 C85.3748489,37.6322469 84.7731795,37.7714342 84.1755892,37.9168538 L84.1755892,37.9168538 Z" id="Fill-4" fill="#FEFEFE" mask="url(#mask-4)"></path>
                </g>
            </g>
        </g>
    </g>
</svg>